<?xml version="1.0" encoding="UTF-8"?>
<svg id="Layer_1" xmlns="http://www.w3.org/2000/svg" version="1.1" xmlns:xlink="http://www.w3.org/1999/xlink" viewBox="0 0 52.7 31">
  <!-- Generator: Adobe Illustrator 29.3.1, SVG Export Plug-In . SVG Version: 2.1.0 Build 151)  -->
  <defs>
    <style>
      .st0 {
        fill: url(#linear-gradient2);
      }

      .st1 {
        fill: #fff;
      }

      .st2 {
        fill: url(#linear-gradient1);
      }

      .st3 {
        fill: url(#linear-gradient3);
      }

      .st4 {
        fill: url(#linear-gradient);
      }
    </style>
    <linearGradient id="linear-gradient" x1="8.1" y1="28.5" x2="8.1" y2="4.7" gradientTransform="translate(0 31) scale(1 -1)" gradientUnits="userSpaceOnUse">
      <stop offset="0" stop-color="#00dbdb"/>
      <stop offset="1" stop-color="#00a2e5"/>
    </linearGradient>
    <linearGradient id="linear-gradient1" x1="13.6" y1="28.5" x2="13.6" y2="4.7" gradientTransform="translate(0 31) scale(1 -1)" gradientUnits="userSpaceOnUse">
      <stop offset="0" stop-color="#00dbdb"/>
      <stop offset="1" stop-color="#00a2e5"/>
    </linearGradient>
    <linearGradient id="linear-gradient2" x1="44.6" y1="28.5" x2="44.6" y2="4.7" gradientTransform="translate(0 31) scale(1 -1)" gradientUnits="userSpaceOnUse">
      <stop offset="0" stop-color="#00dbdb"/>
      <stop offset="1" stop-color="#00a2e5"/>
    </linearGradient>
    <linearGradient id="linear-gradient3" x1="39.1" y1="28.5" x2="39.1" y2="4.7" gradientTransform="translate(0 31) scale(1 -1)" gradientUnits="userSpaceOnUse">
      <stop offset="0" stop-color="#00dbdb"/>
      <stop offset="1" stop-color="#00a2e5"/>
    </linearGradient>
  </defs>
  <rect class="st4" x="5.8" y="2.5" width="4.5" height="23.8"/>
  <rect class="st2" x="11.4" y="2.5" width="4.5" height="23.8"/>
  <rect class="st0" x="42.4" y="2.5" width="4.5" height="23.8"/>
  <rect class="st3" x="36.9" y="2.5" width="4.5" height="23.8"/>
  <path class="st1" d="M0,0v29.1h1.1l1,1.9h17.4l1-1.9h11.7l1,1.9h17.3l1.1-2h1.1V0H0ZM51.6,2.5h-3.7v23.8h3.7v1H1.1v-1h3.7V2.5H1.1v-1h50.5v1Z"/>
  <path class="st1" d="M26.7,11.9c.4-.4.6-.9.6-1.7s-.2-1.3-.6-1.6-1-.5-1.9-.5h-.5v4.4h.5c.9,0,1.5-.2,1.9-.5Z"/>
  <path class="st1" d="M35.8,2.5h-18.9v23.8h18.9V2.5ZM31,20.4c-.4.7-1,1.3-1.7,1.7-.7.4-1.5.6-2.3.8-.6.1-1.5.2-2.6.2v-2.6h-3.2V5.7h3.7c2,0,3.4.4,4.3,1.1.9.8,1.4,1.9,1.4,3.5s-.5,2.6-1.4,3.4c-.9.8-2.2,1.2-3.9,1.2h-.9v5.5h.6c1,0,1.9-.2,2.4-.7.6-.5.9-1.2.9-2.1s-.2-1.3-.6-1.7c.9-.2,1.7-.6,2.4-1.2.2.1.5.3.6.4.7.7,1.1,1.7,1.1,2.8s-.2,1.7-.6,2.4Z"/>
</svg>