<?xml version="1.0" encoding="UTF-8"?>
<svg id="Layer_1" data-name="Layer 1" xmlns="http://www.w3.org/2000/svg" xmlns:xlink="http://www.w3.org/1999/xlink" viewBox="0 0 106.08 31">
  <defs>
    <style>
      .cls-1 {
        fill: url(#linear-gradient-2);
      }

      .cls-2 {
        fill: #fff;
      }

      .cls-3 {
        fill: url(#linear-gradient-4);
      }

      .cls-4 {
        fill: url(#linear-gradient-3);
      }

      .cls-5 {
        fill: #1a1a1a;
      }

      .cls-6 {
        fill: url(#linear-gradient);
      }
    </style>
    <linearGradient id="linear-gradient" x1="8.07" y1="28.54" x2="8.07" y2="4.72" gradientTransform="translate(0 31) scale(1 -1)" gradientUnits="userSpaceOnUse">
      <stop offset="0" stop-color="#00dbdb"/>
      <stop offset="1" stop-color="#00a2e5"/>
    </linearGradient>
    <linearGradient id="linear-gradient-2" x1="13.6" y1="28.54" x2="13.6" y2="4.72" gradientTransform="translate(0 31) scale(1 -1)" gradientUnits="userSpaceOnUse">
      <stop offset="0" stop-color="#00dbdb"/>
      <stop offset="1" stop-color="#00a2e5"/>
    </linearGradient>
    <linearGradient id="linear-gradient-3" x1="44.65" y1="28.54" x2="44.65" y2="4.72" gradientTransform="translate(0 31) scale(1 -1)" gradientUnits="userSpaceOnUse">
      <stop offset="0" stop-color="#00dbdb"/>
      <stop offset="1" stop-color="#00a2e5"/>
    </linearGradient>
    <linearGradient id="linear-gradient-4" x1="39.11" y1="28.54" x2="39.11" y2="4.72" gradientTransform="translate(0 31) scale(1 -1)" gradientUnits="userSpaceOnUse">
      <stop offset="0" stop-color="#00dbdb"/>
      <stop offset="1" stop-color="#00a2e5"/>
    </linearGradient>
  </defs>
  <g>
    <rect class="cls-6" x="5.83" y="2.46" width="4.49" height="23.82"/>
    <rect class="cls-1" x="11.36" y="2.46" width="4.49" height="23.82"/>
    <rect class="cls-4" x="42.4" y="2.46" width="4.49" height="23.82"/>
    <rect class="cls-3" x="36.87" y="2.46" width="4.48" height="23.82"/>
    <path class="cls-2" d="M0,0v29.1h1.09l.99,1.89h17.42l.99-1.89h11.75l.99,1.89h17.34l1.07-2.04h1.09V0H0ZM51.64,2.46h-3.7v23.82h3.7v1.04H1.09v-1.04h3.7V2.46H1.09v-1.04h50.55v1.04Z"/>
    <path class="cls-2" d="M26.66,11.9c.39-.36.59-.94.59-1.73,0-.73-.2-1.27-.59-1.61s-1.03-.51-1.9-.51h-.46v4.39h.46c.87,0,1.5-.18,1.9-.54Z"/>
    <path class="cls-2" d="M35.83,2.46h-18.93v23.82h18.93V2.46ZM31.02,20.39c-.41.72-1,1.28-1.73,1.67-.66.36-1.45.62-2.34.78-.59.1-1.49.17-2.64.21v-2.63h-3.21V5.69h3.67c1.96,0,3.41.37,4.34,1.12.94.75,1.4,1.9,1.4,3.47,0,1.45-.47,2.58-1.41,3.41-.94.82-2.25,1.23-3.91,1.23h-.88v5.49h.6c1.04,0,1.86-.24,2.41-.7.56-.48.85-1.18.85-2.08,0-.71-.21-1.29-.61-1.72.92-.25,1.72-.65,2.38-1.22.22.14.45.28.63.45.72.71,1.08,1.66,1.08,2.85,0,.87-.21,1.68-.63,2.4Z"/>
  </g>
  <g>
    <g>
      <path class="cls-2" d="M65.91,15.75c-.13-.11-.28-.2-.42-.26.18-.12.35-.27.49-.48.25-.36.37-.77.37-1.22,0-.4-.1-.76-.29-1.08-.2-.32-.46-.57-.79-.75s-.7-.27-1.11-.27h-3.31v8.12h3.59c.43,0,.82-.09,1.18-.28s.63-.45.83-.78c.2-.33.3-.72.3-1.15,0-.37-.07-.72-.22-1.04-.15-.33-.35-.59-.61-.81h-.01ZM63.64,13.49c.13,0,.24.03.34.08.1.06.17.13.23.24.05.1.08.21.08.33,0,.13-.03.24-.09.34s-.14.18-.24.24c-.1.05-.21.08-.32.08h-.86v-1.31s.86,0,.86,0ZM64.58,17.63c-.07.12-.16.21-.27.28-.11.07-.24.1-.38.1h-1.14v-1.52h1.14c.14,0,.27.03.38.1s.2.16.27.27.1.24.1.38-.03.27-.1.39Z"/>
      <path class="cls-2" d="M75.08,13.61c-.38-.64-.89-1.14-1.55-1.51-.65-.37-1.39-.55-2.19-.55s-1.54.18-2.19.55-1.17.87-1.55,1.51c-.38.64-.56,1.35-.56,2.13s.19,1.5.56,2.13c.38.64.89,1.14,1.55,1.51.65.37,1.39.55,2.19.55s1.54-.18,2.19-.55c.65-.37,1.17-.87,1.55-1.51.38-.64.56-1.35.56-2.13s-.19-1.5-.56-2.13ZM73.29,16.91c-.2.35-.46.62-.81.82-.34.2-.72.29-1.15.29s-.81-.1-1.15-.29c-.34-.2-.61-.47-.81-.81s-.29-.73-.29-1.16.1-.81.29-1.16c.2-.35.46-.62.81-.82.34-.2.72-.29,1.15-.29s.81.1,1.15.29c.34.2.61.47.81.81.2.35.29.73.29,1.16s-.1.81-.29,1.16Z"/>
      <polygon class="cls-2" points="83.46 11.69 81.02 11.69 79.33 14.3 77.63 11.69 75.16 11.69 77.94 15.73 75.11 19.81 77.56 19.81 79.3 17.15 81.05 19.81 83.51 19.81 80.69 15.73 83.46 11.69"/>
      <path class="cls-2" d="M89.39,16.62c-.11.28-.27.53-.48.74-.21.21-.45.37-.73.49-.28.12-.57.18-.89.18-.42,0-.81-.1-1.15-.29-.34-.2-.61-.47-.81-.81s-.29-.73-.29-1.16.1-.82.29-1.16c.2-.34.46-.62.81-.81.34-.2.72-.29,1.15-.29.31,0,.61.06.89.18s.52.28.73.49c.21.21.37.45.48.74h2.13c-.13-.64-.4-1.22-.79-1.72-.4-.51-.89-.9-1.48-1.18-.59-.28-1.24-.42-1.95-.42-.81,0-1.54.18-2.19.55s-1.17.87-1.55,1.51c-.38.64-.56,1.35-.56,2.13s.19,1.5.56,2.13c.38.64.89,1.14,1.55,1.51.65.37,1.39.55,2.19.55.71,0,1.35-.14,1.95-.42.59-.28,1.09-.68,1.48-1.18.4-.51.66-1.08.79-1.72h-2.13v-.04Z"/>
      <path class="cls-2" d="M94.07,11.69l-3,8.12h2.15l.44-1.29h3.13l.44,1.29h2.2l-3-8.12s-2.36,0-2.36,0ZM94.29,16.67l.94-2.76.93,2.76h-1.87Z"/>
      <path class="cls-2" d="M103.67,19.81h2.41l-1.57-3.05c.4-.23.72-.53.96-.92.25-.41.38-.87.38-1.38s-.13-.99-.38-1.42-.6-.76-1.04-1-.93-.36-1.47-.36h-2.98v8.12h2v-2.66h.48l1.22,2.66h-.01ZM101.97,13.57h.93c.16,0,.31.04.45.12.13.08.24.19.32.33s.12.3.12.47-.04.32-.12.46-.18.25-.32.33c-.13.08-.28.12-.45.12h-.93v-1.82h0Z"/>
    </g>
    <g>
      <path class="cls-2" d="M64.65,1.62c-.38-.21-.8-.31-1.26-.31h-2.55v7.48h1.17v-2.68h1.38c.46,0,.88-.1,1.26-.31s.67-.5.88-.86.32-.77.32-1.22-.11-.87-.32-1.23-.51-.65-.88-.86h0ZM64.48,4.37c-.11.2-.27.35-.46.47-.2.11-.41.17-.65.17h-1.36v-2.59h1.36c.24,0,.46.06.65.17.2.11.35.27.46.47s.17.42.17.67-.06.46-.17.66v-.02Z"/>
      <path class="cls-2" d="M70.51,5.62c.36-.2.65-.47.86-.82.21-.35.31-.73.31-1.16s-.11-.84-.31-1.2c-.21-.36-.5-.64-.86-.84-.37-.2-.78-.3-1.23-.3h-2.49v7.48h1.17v-2.86h.75l1.72,2.86h1.42l-1.86-2.95c.18-.05.36-.12.52-.21ZM69.25,4.9h-1.3v-2.49h1.3c.22,0,.43.05.62.16.19.11.34.26.44.45.1.19.16.4.16.63s-.05.44-.16.63-.25.34-.44.45c-.19.11-.4.16-.62.16h0Z"/>
      <path class="cls-2" d="M78.2,1.68c-.6-.34-1.26-.51-2-.51s-1.4.17-2,.51-1.07.8-1.42,1.39-.52,1.25-.52,1.97.17,1.38.52,1.97.82,1.05,1.42,1.39,1.26.51,2,.51,1.4-.17,2-.51,1.07-.8,1.41-1.39c.34-.59.52-1.25.52-1.97s-.17-1.38-.52-1.97c-.34-.59-.81-1.05-1.41-1.39ZM78.57,6.44c-.24.42-.57.74-.98.99-.42.24-.88.36-1.38.36s-.98-.12-1.39-.36c-.42-.24-.74-.57-.98-.99-.24-.42-.35-.88-.35-1.39s.12-.98.35-1.39c.23-.42.56-.74.98-.99.42-.24.88-.36,1.38-.36s.98.12,1.39.36c.42.24.74.57.98.99.24.42.36.88.36,1.39s-.12.98-.36,1.39Z"/>
      <polygon class="cls-2" points="89.4 5.57 92.07 5.57 92.07 4.47 89.4 4.47 89.4 2.41 92.42 2.41 92.42 1.3 89.4 1.3 89.02 1.3 88.23 1.3 88.23 8.78 89.02 8.78 89.4 8.78 92.48 8.78 92.48 7.68 89.4 7.68 89.4 5.57"/>
      <path class="cls-2" d="M95.64,2.66c.42-.24.88-.36,1.39-.36.4,0,.77.08,1.12.23.35.15.65.36.89.63s.44.59.56.95h1.25c-.14-.57-.39-1.08-.75-1.52s-.81-.79-1.33-1.04c-.53-.25-1.11-.37-1.74-.37-.74,0-1.4.17-2,.51s-1.07.8-1.42,1.39-.52,1.25-.52,1.97.17,1.38.52,1.97.82,1.05,1.42,1.39,1.26.51,2,.51c.63,0,1.21-.12,1.74-.37s.97-.6,1.33-1.04.61-.95.75-1.52h-1.25c-.12.36-.31.68-.56.95s-.55.48-.89.63c-.35.15-.72.23-1.12.23-.51,0-.98-.12-1.39-.36-.42-.24-.74-.57-.98-.99-.23-.42-.35-.88-.35-1.39s.12-.98.35-1.39c.24-.42.56-.74.98-.99v-.02Z"/>
      <polygon class="cls-2" points="100.76 1.3 100.76 2.41 102.84 2.41 102.84 8.78 104.01 8.78 104.01 2.41 106.08 2.41 106.08 1.3 100.76 1.3"/>
      <path class="cls-2" d="M83.53,1.3h-2.19v1.16h2.66v3.87c0,.92-.4,1.38-1.16,1.38-.59,0-1.08-.3-1.49-.85l-.79.95c.51.69,1.37,1.08,2.31,1.08,1.65,0,2.52-.87,2.52-2.63v-3.79h1.79v-1.17s-3.65,0-3.65,0Z"/>
    </g>
    <g>
      <g>
        <path class="cls-2" d="M96.33,22.58h8.6c.63,0,1.15.51,1.15,1.15v4.95c0,.63-.51,1.15-1.15,1.15h-8.6v-7.24h0Z"/>
        <g>
          <path class="cls-5" d="M99.35,24.02l-1.7,4.37h.88l.33-.89h1.93l.33.89h.9l-1.7-4.37h-.97ZM99.13,26.75l.68-1.83.68,1.83h-1.37.01Z"/>
          <polygon class="cls-5" points="104.63 24.79 104.63 24.02 102.69 24.02 102.69 24.79 103.25 24.79 103.25 27.62 102.69 27.62 102.69 28.39 104.63 28.39 104.63 27.62 104.07 27.62 104.07 24.79 104.63 24.79"/>
        </g>
      </g>
      <g>
        <path class="cls-2" d="M64.88,25.87c0,.52-.1.96-.3,1.31-.2.35-.48.62-.86.8s-.82.27-1.35.27h-1.31v-4.67h1.45c.48,0,.9.09,1.26.26.35.17.63.43.82.77s.29.76.29,1.26ZM64.01,25.9c0-.37-.06-.68-.17-.92-.11-.24-.28-.42-.5-.53s-.5-.17-.82-.17h-.62v3.28h.5c.54,0,.94-.14,1.21-.42.26-.28.4-.69.4-1.24Z"/>
        <path class="cls-2" d="M66.21,23.34c.12,0,.23.03.32.1.09.06.14.18.14.34s-.05.27-.14.34-.2.1-.32.1-.23-.03-.32-.1-.13-.18-.13-.34.04-.27.13-.34c.09-.06.2-.1.32-.1ZM66.62,24.71v3.54h-.82v-3.54h.82Z"/>
        <path class="cls-2" d="M70.09,27.23c0,.24-.06.44-.17.6s-.28.29-.5.37-.49.12-.81.12c-.25,0-.46-.02-.64-.05-.18-.04-.35-.09-.51-.16v-.7c.17.08.37.15.58.21s.41.08.59.08c.23,0,.39-.03.49-.1s.15-.16.15-.28c0-.07-.02-.13-.06-.19s-.12-.12-.23-.18-.29-.14-.52-.24c-.23-.09-.42-.18-.57-.27s-.26-.2-.34-.33c-.08-.13-.11-.29-.11-.49,0-.32.13-.56.38-.72s.59-.25,1-.25c.22,0,.42.02.62.06.19.04.39.11.58.2l-.26.61c-.16-.07-.32-.13-.48-.18s-.32-.07-.49-.07c-.18,0-.31.03-.41.08s-.14.13-.14.23c0,.07.02.14.07.19.04.05.13.11.24.16.12.05.28.13.49.21s.4.17.55.26.27.2.35.33.12.3.12.5h.03Z"/>
        <path class="cls-2" d="M72.74,24.64h.18c.07,0,.13.01.18.03l-.07.77s-.09-.02-.15-.02h-.17c-.13,0-.26.02-.38.06-.12.04-.23.1-.32.18s-.17.18-.22.31-.08.28-.08.45v1.84h-.82v-3.54h.63l.12.61h.04c.07-.13.16-.24.26-.34s.23-.18.36-.25c.14-.06.29-.09.44-.09h0Z"/>
        <path class="cls-2" d="M76.9,24.71v3.54h-.65l-.11-.46h-.04c-.07.12-.17.22-.29.3s-.25.13-.39.17-.28.06-.43.06c-.26,0-.49-.05-.68-.14s-.34-.23-.44-.42c-.1-.19-.15-.44-.15-.74v-2.32h.82v2.15c0,.26.05.46.16.59.1.13.27.2.5.2s.4-.05.52-.14c.13-.09.22-.23.27-.41.05-.18.08-.4.08-.66v-1.73h.83Z"/>
        <path class="cls-2" d="M79.82,24.64c.41,0,.75.15,1,.46s.38.76.38,1.37c0,.4-.06.74-.18,1.01s-.28.48-.49.62c-.21.14-.45.21-.73.21-.17,0-.32-.02-.45-.07s-.24-.1-.33-.18c-.09-.07-.17-.15-.24-.23h-.05c.02.08.03.17.04.27s.01.19.01.28v1.44h-.82v-5.11h.67l.12.47h.04c.07-.1.15-.19.24-.27s.21-.14.34-.19c.13-.05.29-.07.46-.07h0ZM79.58,25.31c-.19,0-.35.04-.46.11-.12.08-.2.19-.26.35-.05.16-.08.35-.08.59v.1c0,.25.03.47.08.64s.14.31.26.4.28.14.49.14c.17,0,.32-.05.43-.14.11-.1.19-.23.25-.41.05-.18.08-.39.08-.63,0-.37-.06-.65-.19-.85-.12-.2-.32-.3-.59-.3h-.01Z"/>
        <path class="cls-2" d="M83.42,27.66c.1,0,.21,0,.3-.03s.19-.04.27-.07v.61c-.09.04-.2.07-.34.1s-.29.04-.44.04c-.2,0-.38-.03-.55-.1-.16-.07-.29-.18-.39-.35s-.15-.4-.15-.69v-1.84h-.48v-.36l.52-.29.26-.75h.52v.78h1.01v.62h-1.01v1.84c0,.17.04.29.13.37s.2.12.34.12h.01Z"/>
        <path class="cls-2" d="M85.11,23.34c.12,0,.23.03.32.1.09.06.14.18.14.34s-.05.27-.14.34-.2.1-.32.1-.23-.03-.32-.1-.13-.18-.13-.34.04-.27.13-.34c.09-.06.2-.1.32-.1ZM85.53,24.71v3.54h-.82v-3.54h.82Z"/>
        <path class="cls-2" d="M87.4,28.25l-1.35-3.54h.87l.71,2.05c.03.08.06.17.08.27.03.1.05.19.07.29.02.09.03.18.04.25h.03c0-.07.02-.16.05-.25.02-.09.05-.19.08-.28.03-.1.06-.19.08-.27l.71-2.05h.87l-1.35,3.54h-.89Z"/>
        <path class="cls-2" d="M91.58,24.64c.32,0,.59.06.82.19.23.13.41.31.53.55.13.24.19.53.19.87v.42h-2.34c0,.32.1.57.27.75s.41.27.71.27c.23,0,.44-.02.62-.07s.37-.11.56-.2v.66c-.17.08-.36.14-.54.18-.19.04-.41.06-.67.06-.34,0-.65-.07-.92-.2-.27-.13-.48-.33-.63-.6-.15-.27-.23-.61-.23-1.01s.07-.75.21-1.02.33-.49.57-.63.53-.21.86-.21h-.01ZM91.58,25.25c-.22,0-.4.07-.53.21-.14.14-.22.35-.25.63h1.52c0-.17-.03-.31-.08-.44s-.14-.23-.25-.3-.25-.11-.42-.11h.01Z"/>
      </g>
    </g>
  </g>
</svg>