<?xml version="1.0" encoding="UTF-8"?>
<svg id="Layer_1" xmlns="http://www.w3.org/2000/svg" xmlns:xlink="http://www.w3.org/1999/xlink" version="1.1" viewBox="0 0 190.3 200">
  <!-- Generator: Adobe Illustrator 29.2.1, SVG Export Plug-In . SVG Version: 2.1.0 Build 116)  -->
  <defs>
    <style>
      .st0 {
        fill: url(#linear-gradient2);
      }

      .st1 {
        fill: url(#linear-gradient1);
      }

      .st2 {
        fill: url(#linear-gradient3);
      }

      .st3 {
        fill: url(#linear-gradient);
      }

      .st4 {
        fill: #1a1a1a;
      }
    </style>
    <linearGradient id="linear-gradient" x1="95.1" y1="199.5" x2="95.1" y2="16.6" gradientTransform="translate(0 202) scale(1 -1)" gradientUnits="userSpaceOnUse">
      <stop offset="0" stop-color="#3a3a3a"/>
      <stop offset=".3" stop-color="#343434"/>
      <stop offset=".8" stop-color="#242424"/>
      <stop offset="1" stop-color="#1a1a1a"/>
    </linearGradient>
    <linearGradient id="linear-gradient1" x1="95.1" y1="200" x2="95.1" y2="0" gradientUnits="userSpaceOnUse">
      <stop offset="0" stop-color="#ddac17"/>
      <stop offset=".2" stop-color="#ecc440"/>
      <stop offset="1" stop-color="#fffa8a"/>
    </linearGradient>
    <linearGradient id="linear-gradient2" x1="73.6" y1="139.1" x2="73.6" y2="97.3" gradientTransform="translate(0 202) scale(1 -1)" gradientUnits="userSpaceOnUse">
      <stop offset="0" stop-color="#3a3a3a"/>
      <stop offset=".3" stop-color="#343434"/>
      <stop offset=".8" stop-color="#242424"/>
      <stop offset="1" stop-color="#1a1a1a"/>
    </linearGradient>
    <linearGradient id="linear-gradient3" x1="110.2" y1="139" x2="110.2" y2="97.3" gradientTransform="translate(0 202) scale(1 -1)" gradientUnits="userSpaceOnUse">
      <stop offset="0" stop-color="#3a3a3a"/>
      <stop offset=".3" stop-color="#343434"/>
      <stop offset=".8" stop-color="#242424"/>
      <stop offset="1" stop-color="#1a1a1a"/>
    </linearGradient>
  </defs>
  <g>
    <rect class="st3" x="3.7" y="2.5" width="182.9" height="182.9"/>
    <path class="st1" d="M0,0v190.9h13.5l4.8,9.1h56.5l4.8-9.1h31.3l4.8,9.1h56.1l5.1-9.7h13.5V0H0ZM7.3,182.9V7.3h35.2v175.6H7.3ZM182.9,182.9h-35.2V7.3h35.2v175.6Z"/>
  </g>
  <g>
    <path class="st0" d="M84.1,83.9c-.8-.6-1.7-1.1-2.6-1.4,1.1-.6,2-1.4,2.8-2.5,1.3-1.8,1.9-4,1.9-6.4s-.5-3.8-1.5-5.4c-1-1.6-2.3-2.9-4-3.8-1.7-.9-3.6-1.4-5.7-1.4h-16.2v41.8h17.8c2.2,0,4.2-.5,6-1.4,1.8-1,3.2-2.3,4.2-4s1.6-3.7,1.6-5.8-.4-3.7-1.2-5.4c-.8-1.7-1.8-3.1-3.2-4.1h0ZM72.8,71.1c.8,0,1.5.2,2.1.5.6.4,1.1.9,1.5,1.5.4.6.5,1.3.5,2.1s-.2,1.5-.5,2.1-.9,1.2-1.5,1.5c-.6.4-1.3.6-2.1.6h-5.2v-8.3h5.2ZM78.5,94.2c-.4.7-1,1.3-1.7,1.7-.7.4-1.5.6-2.4.6h-6.8v-9.4h6.8c.9,0,1.7.2,2.4.6.7.4,1.3,1,1.7,1.7.4.7.6,1.5.6,2.4s-.2,1.7-.6,2.4h0Z"/>
    <polygon class="st2" points="131.4 104.7 116.5 83.8 131.2 63 120.2 63 110.3 77.4 100.4 63 89.3 63 104 83.8 89.1 104.7 100.1 104.7 110.2 90.1 120.3 104.7 131.4 104.7"/>
  </g>
  <g>
    <path class="st4" d="M62.5,119.5c-.8-.2-1.5-.5-1.9-.8-.4-.3-.6-.8-.6-1.3s0-.6.3-.9c.2-.3.4-.5.7-.6.3-.2.7-.2,1-.2s.7,0,1.1.2c.3.2.6.4.7.7.2.3.3.6.3,1h2.1c0-.7-.2-1.4-.6-1.9-.4-.6-.9-1-1.5-1.4-.6-.3-1.3-.5-2.1-.5s-1.5.2-2.1.5c-.6.3-1.1.8-1.5,1.3-.4.6-.5,1.2-.5,1.9,0,1.1.3,1.9,1,2.5.7.6,1.5,1.1,2.7,1.4.9.2,1.6.5,2,.9.5.4.7.8.7,1.4s0,.7-.3.9c-.2.3-.5.5-.8.7-.3.2-.7.2-1.1.2s-.8,0-1.2-.3-.6-.4-.8-.8-.3-.7-.3-1.1h-2.1c0,.8.2,1.4.6,2,.4.6.9,1.1,1.6,1.4.7.3,1.4.5,2.2.5s1.5-.2,2.2-.5c.7-.3,1.2-.8,1.6-1.4s.6-1.2.6-1.9c0-1.1-.3-1.9-1-2.6-.7-.6-1.6-1.1-2.8-1.4h0Z"/>
    <polygon class="st4" points="68.7 115.9 72.3 115.9 72.3 127.1 74.3 127.1 74.3 115.9 78 115.9 78 114 68.7 114 68.7 115.9"/>
    <path class="st4" d="M89.9,122c0,.6-.2,1.2-.4,1.7-.3.5-.7.9-1.2,1.2-.5.3-1.1.4-1.7.4s-1.2-.1-1.7-.4c-.5-.3-.9-.7-1.2-1.2-.3-.5-.4-1.1-.4-1.7v-8h-2.1v8.1c0,1,.2,1.9.7,2.7.5.8,1.1,1.4,1.9,1.9.8.5,1.7.7,2.7.7s1.9-.2,2.7-.7c.8-.5,1.5-1.1,1.9-1.9.5-.8.7-1.7.7-2.7v-8.1h-2.1v8h0Z"/>
    <path class="st4" d="M104.5,114.8c-1-.6-2.1-.8-3.4-.8h-5.1v13.1h5.1c1.2,0,2.4-.3,3.4-.8s1.8-1.3,2.4-2.3.9-2.1.9-3.3-.3-2.3-.9-3.3c-.6-1-1.4-1.8-2.4-2.3h0ZM105.1,122.9c-.4.7-.9,1.3-1.6,1.7-.7.4-1.5.6-2.3.6h-3v-9.2h3c.9,0,1.6.2,2.3.6s1.2,1,1.6,1.7c.4.7.6,1.5.6,2.3s-.2,1.6-.6,2.3h0Z"/>
    <polygon class="st4" points="110.6 115.9 112.3 115.9 112.3 125.2 110.6 125.2 110.6 127.1 116.1 127.1 116.1 125.2 114.4 125.2 114.4 115.9 116.1 115.9 116.1 114 110.6 114 110.6 115.9"/>
    <path class="st4" d="M131.7,117.1c-.6-1-1.4-1.8-2.5-2.4-1.1-.6-2.2-.9-3.5-.9s-2.4.3-3.5.9c-1,.6-1.9,1.4-2.5,2.4s-.9,2.2-.9,3.4.3,2.4.9,3.4,1.4,1.8,2.5,2.4c1.1.6,2.2.9,3.5.9s2.4-.3,3.5-.9,1.9-1.4,2.5-2.4.9-2.2.9-3.4-.3-2.4-.9-3.4ZM129.9,123c-.4.7-1,1.3-1.7,1.7-.7.4-1.5.6-2.4.6s-1.7-.2-2.4-.6c-.7-.4-1.3-1-1.7-1.7-.4-.7-.6-1.5-.6-2.4s.2-1.7.6-2.4c.4-.7,1-1.3,1.7-1.7.7-.4,1.5-.6,2.4-.6s1.7.2,2.4.6c.7.4,1.3,1,1.7,1.7.4.7.6,1.5.6,2.4s-.2,1.7-.6,2.4Z"/>
  </g>
</svg>