<?xml version="1.0" encoding="UTF-8"?>
<svg id="Layer_1" xmlns="http://www.w3.org/2000/svg" version="1.1" xmlns:xlink="http://www.w3.org/1999/xlink" viewBox="0 0 190.26 200">
  <!-- Generator: Adobe Illustrator 29.2.1, SVG Export Plug-In . SVG Version: 2.1.0 Build 116)  -->
  <defs>
    <style>
      .st0 {
        fill: url(#linear-gradient2);
      }

      .st1 {
        fill: url(#linear-gradient1);
      }

      .st2 {
        fill: url(#linear-gradient3);
      }

      .st3 {
        fill: url(#linear-gradient);
      }
    </style>
    <linearGradient id="linear-gradient" x1="95.13" y1="22.75" x2="95.13" y2="177.25" gradientUnits="userSpaceOnUse">
      <stop offset="0" stop-color="#3a3a3a"/>
      <stop offset=".34" stop-color="#343434"/>
      <stop offset=".78" stop-color="#242424"/>
      <stop offset="1" stop-color="#1a1a1a"/>
    </linearGradient>
    <linearGradient id="linear-gradient1" x1="95.13" y1="70.16" x2="95.13" y2="120.74" gradientUnits="userSpaceOnUse">
      <stop offset="0" stop-color="#ffd807"/>
      <stop offset=".05" stop-color="#ffd607"/>
      <stop offset=".58" stop-color="#ffc607"/>
      <stop offset="1" stop-color="#ffc107"/>
    </linearGradient>
    <linearGradient id="linear-gradient2" x1="95.13" y1="70.71" x2="95.13" y2="120.19" gradientUnits="userSpaceOnUse">
      <stop offset="0" stop-color="#ffd807"/>
      <stop offset=".5" stop-color="#ffc107"/>
      <stop offset=".71" stop-color="#ffc607"/>
      <stop offset=".98" stop-color="#ffd607"/>
      <stop offset="1" stop-color="#ffd807"/>
    </linearGradient>
    <linearGradient id="linear-gradient3" x1="95.13" y1="0" x2="95.13" y2="200" gradientUnits="userSpaceOnUse">
      <stop offset="0" stop-color="#ff0"/>
      <stop offset=".1" stop-color="#ffed03"/>
      <stop offset=".24" stop-color="#ffdd06"/>
      <stop offset=".34" stop-color="#ffd807"/>
      <stop offset=".37" stop-color="#ffd607"/>
      <stop offset=".67" stop-color="#ffc607"/>
      <stop offset=".92" stop-color="#ffc107"/>
    </linearGradient>
  </defs>
  <rect class="st3" x="17.88" y="22.75" width="154.51" height="154.51"/>
  <g>
    <polygon class="st1" points="92.49 70.16 81.5 70.16 81.5 120.74 90.3 120.74 92.49 120.74 108.76 120.74 108.76 110.4 92.49 110.4 92.49 70.16"/>
    <path class="st0" d="M82.05,120.19h26.16v-9.23h-16.27v-40.24h-9.89v49.47Z"/>
    <path class="st2" d="M190.26,187.43V0H0v190.93h13.47l4.76,9.07h56.51l4.76-9.07h31.28l4.76,9.07h56.14l5.1-9.74h13.49v-.04h0v-2.79h0ZM92.38,166.19c-37.82-1.45-68.05-32.49-68.05-70.66S54.57,26.33,92.38,24.87v11.67c-31.1,1.45-55.98,27.14-55.98,58.59s24.88,57.13,55.98,58.58v12.48ZM41.9,95.13c0-29.35,23.88-53.23,53.23-53.23s53.23,23.88,53.23,53.23-23.88,53.23-53.23,53.23-53.23-23.88-53.23-53.23ZM97.88,166.19v-12.48c31.1-1.45,55.97-27.13,55.97-58.58s-24.87-57.14-55.97-58.59v-11.67c37.82,1.46,68.05,32.49,68.05,70.66s-30.23,69.2-68.05,70.66Z"/>
  </g>
</svg>