<?xml version="1.0" encoding="UTF-8"?>
<svg id="Layer_1" xmlns="http://www.w3.org/2000/svg" version="1.1" xmlns:xlink="http://www.w3.org/1999/xlink" viewBox="0 0 190.27 200">
  <!-- Generator: Adobe Illustrator 29.2.1, SVG Export Plug-In . SVG Version: 2.1.0 Build 116)  -->
  <defs>
    <style>
      .st0 {
        fill: #00dbdb;
      }

      .st1 {
        fill: url(#linear-gradient);
      }
    </style>
    <linearGradient id="linear-gradient" x1="95.13" y1="0" x2="95.13" y2="200" gradientUnits="userSpaceOnUse">
      <stop offset="0" stop-color="#3a3a3a"/>
      <stop offset=".34" stop-color="#343434"/>
      <stop offset=".78" stop-color="#242424"/>
      <stop offset="1" stop-color="#1a1a1a"/>
    </linearGradient>
  </defs>
  <path class="st1" d="M190.26,0H0v190.93h13.47l4.76,9.07h56.51l4.76-9.07h31.28l4.76,9.07h56.14l5.1-9.74h13.49v-.04h0V0Z"/>
  <path class="st0" d="M12.83,12.83v165.27h8.4l4.75,9.07h40.99l4.77-9.07h46.79l4.75,9.07h40.62l5.11-9.73h8.42V12.83H12.83ZM93.3,174.44h-23.78l-4.75,9.07h-16.39v-27.78h-3.66v27.78h-16.5l-4.75-9.07h-6.96V16.49h28.21v18.05h3.66v-18.05h44.93v32.43h-31.97s-16.62,0-16.62,0v92.43h48.59v33.09ZM138.17,56.25v77.77H52.1V56.25h86.07ZM173.77,173.77h-6.98l-5.1,9.73h-16.2v-27.78h-3.66v27.78h-16.33l-4.75-9.07h-23.78v-33.09h48.53V48.92h-16.33s-32.2,0-32.2,0V16.49h44.86v18.05h3.66v-18.05h28.28v157.28Z"/>
  <path class="st0" d="M81.72,117.85c-4.08-2.3-7.29-5.44-9.64-9.42-2.34-3.99-3.51-8.42-3.51-13.31s1.17-9.32,3.51-13.3c2.35-3.99,5.56-7.12,9.64-9.42,4.08-2.3,8.64-3.44,13.67-3.44,4.39,0,8.44.87,12.13,2.63,3.69,1.76,6.76,4.22,9.23,7.37,2.46,3.16,4.12,6.74,4.95,10.74h-13.26c-.69-1.75-1.67-3.29-2.97-4.58-1.3-1.29-2.81-2.3-4.55-3.04-1.73-.73-3.58-1.1-5.53-1.1-2.64,0-5.02.61-7.15,1.83-2.13,1.22-3.79,2.91-5.02,5.05-1.22,2.15-1.83,4.57-1.83,7.26s.61,5.11,1.83,7.26,2.89,3.84,5.02,5.06c2.13,1.22,4.51,1.83,7.15,1.83,1.95,0,3.8-.37,5.53-1.1,1.73-.73,3.25-1.75,4.55-3.04,1.3-1.3,2.28-2.82,2.97-4.58h13.26c-.83,4.01-2.48,7.59-4.95,10.74-2.47,3.15-5.55,5.6-9.23,7.37-3.69,1.76-7.74,2.64-12.13,2.64-5.03,0-9.59-1.15-13.67-3.44Z"/>
</svg>