<?xml version="1.0" encoding="UTF-8"?>
<svg id="Layer_1" xmlns="http://www.w3.org/2000/svg" version="1.1" viewBox="0 0 400 400">
  <!-- Generator: Adobe Illustrator 29.3.1, SVG Export Plug-In . SVG Version: 2.1.0 Build 151)  -->
  <defs>
    <style>
      .st0 {
        fill: #1a1a1a;
      }
    </style>
  </defs>
  <path class="st0" d="M173.2,167.6h-7.7v-73.7h7.7c14.6,0,25.2,2.8,31.9,8.5,6.6,5.7,9.9,14.7,9.9,27s-3.3,23.1-9.9,29.1c-6.6,6.1-17.3,9.1-31.9,9.1ZM400,400H0V0h400v400ZM288.8,260.9c0-19.9-6.1-36-18.2-47.9-3-2.9-6.8-5.2-10.5-7.6-11.1,9.6-24.6,16.3-40,20.6,6.7,7.3,10.2,17,10.2,29s-4.8,26.8-14.3,34.9c-9.3,7.8-22.9,11.8-40.5,11.8h-10.1v-92.2h14.7c28,0,49.9-6.9,65.7-20.7,15.8-13.8,23.7-32.9,23.7-57.2s-7.9-45.7-23.6-58.3c-15.7-12.6-40-18.9-72.9-18.9h-61.7v247.3h54v44.1c19.3-.6,34.4-1.7,44.3-3.5,15-2.6,28.2-7,39.4-13,12.3-6.6,22.1-16.1,29-28.1,7-12.1,10.6-25.6,10.6-40.2Z"/>
</svg>