<?xml version="1.0" encoding="UTF-8"?>
<svg id="Layer_1" xmlns="http://www.w3.org/2000/svg" xmlns:xlink="http://www.w3.org/1999/xlink" version="1.1" viewBox="0 0 190.3 199.9">
  <!-- Generator: Adobe Illustrator 29.3.0, SVG Export Plug-In . SVG Version: 2.1.0 Build 146)  -->
  <defs>
    <style>
      .st0 {
        fill: url(#linear-gradient1);
      }

      .st1 {
        fill: url(#linear-gradient);
      }
    </style>
    <linearGradient id="linear-gradient" x1="95.1" y1="176.2" x2="95.1" y2="37.7" gradientTransform="translate(0 202) scale(1 -1)" gradientUnits="userSpaceOnUse">
      <stop offset="0" stop-color="#3a3a3a"/>
      <stop offset="0" stop-color="#2f2f2f"/>
      <stop offset=".2" stop-color="#232323"/>
      <stop offset=".5" stop-color="#1b1b1b"/>
      <stop offset="1" stop-color="#1a1a1a"/>
    </linearGradient>
    <linearGradient id="linear-gradient1" x1="95.1" y1="202" x2="95.1" y2="2.1" gradientTransform="translate(0 202) scale(1 -1)" gradientUnits="userSpaceOnUse">
      <stop offset="0" stop-color="#deff8d"/>
      <stop offset=".5" stop-color="#c5f400"/>
      <stop offset=".8" stop-color="#c3f200"/>
      <stop offset=".9" stop-color="#bcec00"/>
      <stop offset="1" stop-color="#b0e100"/>
      <stop offset="1" stop-color="#a7d900"/>
    </linearGradient>
  </defs>
  <rect class="st1" x="25.9" y="25.8" width="138.5" height="138.5"/>
  <path class="st0" d="M0,0v190.9h13.5l4.7,9.1h56.5l4.8-9.1h31.3l4.8,9.1h56.1l5.1-9.8h13.6V0H0ZM157,29.3l-19.7,19.7H53l-19.7-19.7s123.7,0,123.7,0ZM113.5,72.8h-36.8l-9.7-9.7h56.1l-9.7,9.7ZM73.2,77v36.1l-9.7,9.7v-55.5l9.7,9.7h0ZM77.4,116.7h35.4l9.7,9.7h-54.8l9.7-9.7ZM117.1,113.2v-36.3l7.1-7.1,2.5-2.5v55.5l-9.6-9.6ZM29.4,33.3l20,20v83.6l-20,20s0-123.6,0-123.6ZM33.3,160.8l20-20h83.6l20,20H33.3ZM160.9,156.9l-20-19.9V53.3l20-20v123.6h0Z"/>
</svg>