<?xml version="1.0" encoding="UTF-8"?>
<svg id="Layer_1" xmlns="http://www.w3.org/2000/svg" version="1.1" xmlns:xlink="http://www.w3.org/1999/xlink" viewBox="0 0 190.27 200">
  <!-- Generator: Adobe Illustrator 29.2.1, SVG Export Plug-In . SVG Version: 2.1.0 Build 116)  -->
  <defs>
    <style>
      .st0 {
        fill: url(#linear-gradient2);
      }

      .st1 {
        fill: url(#linear-gradient1);
      }

      .st2 {
        fill: url(#linear-gradient7);
      }

      .st3 {
        fill: url(#linear-gradient4);
      }

      .st4 {
        fill: url(#linear-gradient5);
      }

      .st5 {
        fill: url(#linear-gradient3);
      }

      .st6 {
        fill: url(#linear-gradient6);
      }

      .st7 {
        fill: url(#linear-gradient);
      }
    </style>
    <linearGradient id="linear-gradient" x1="95.13" y1="0" x2="95.13" y2="200" gradientUnits="userSpaceOnUse">
      <stop offset="0" stop-color="aqua"/>
      <stop offset=".21" stop-color="#00dbdb"/>
      <stop offset=".5" stop-color="#00d8db"/>
      <stop offset=".67" stop-color="#00d0dc"/>
      <stop offset=".82" stop-color="#00c1df"/>
      <stop offset=".94" stop-color="#00ade2"/>
      <stop offset="1" stop-color="#00a2e5"/>
    </linearGradient>
    <linearGradient id="linear-gradient1" x1="80.88" y1="49.03" x2="80.88" y2="161.04" gradientUnits="userSpaceOnUse">
      <stop offset="0" stop-color="#3a3a3a"/>
      <stop offset="1" stop-color="#1a1a1a"/>
    </linearGradient>
    <linearGradient id="linear-gradient2" x1="117.08" y1="47.78" x2="117.08" y2="142.38" xlink:href="#linear-gradient1"/>
    <linearGradient id="linear-gradient3" x1="96.96" y1="29.29" x2="96.96" y2="42.97" xlink:href="#linear-gradient1"/>
    <linearGradient id="linear-gradient4" x1="149.12" y1="67.72" x2="149.12" y2="131.44" xlink:href="#linear-gradient1"/>
    <linearGradient id="linear-gradient5" x1="63.14" y1="90.38" x2="63.14" y2="134.68" xlink:href="#linear-gradient1"/>
    <linearGradient id="linear-gradient6" x1="95.07" y1="80.07" x2="95.07" y2="115.47" xlink:href="#linear-gradient1"/>
    <linearGradient id="linear-gradient7" x1="76.19" y1="110.72" x2="113.93" y2="72.98" xlink:href="#linear-gradient1"/>
  </defs>
  <path class="st7" d="M190.26,0H0v190.93h13.47l4.76,9.07h56.51l4.76-9.07h31.28l4.76,9.07h56.14l5.1-9.74h13.49v-.04h0V0Z"/>
  <g>
    <path class="st1" d="M125,139.12l7.21,10.7c-10.51,7.08-23.16,11.22-36.77,11.22-36.33,0-65.89-29.58-65.89-65.91,0-17.92,7.2-34.2,18.86-46.1l9.2,9.03c-9.38,9.56-15.17,22.66-15.17,37.07,0,29.22,23.78,53.01,53,53.01,10.95,0,21.1-3.34,29.56-9.03Z"/>
    <path class="st0" d="M142.79,95.13c0-26.11-21.25-47.35-47.35-47.35-1.38,0-2.74.06-4.07.19l.67,7.71c1.11-.11,2.26-.15,3.4-.15,21.83,0,39.62,17.76,39.62,39.62s-16.46,38.25-37.15,39.52l.5,7.72c24.74-1.53,44.4-22.13,44.4-47.24Z"/>
    <path class="st5" d="M95.44,34.15c11.57,0,22.39,3.22,31.61,8.82l2.53-4.15c-9.95-6.05-21.64-9.53-34.14-9.53-11.25,0-21.83,2.83-31.09,7.8l2.3,4.28c8.58-4.6,18.38-7.22,28.79-7.22Z"/>
    <path class="st3" d="M154.09,78.37c-1.06-3.74-2.46-7.29-4.14-10.65l-2.81,1.36c1.58,3.17,2.91,6.52,3.92,10.04,5.14,18.02,1.14,36.47-9.24,50.43l2.49,1.88c10.93-14.69,15.16-34.1,9.78-53.07Z"/>
    <path class="st4" d="M50.87,90.38c-.19,1.78-.28,3.59-.25,5.42.28,16.9,9.87,31.46,23.81,38.87l1.25-2.35c-13.11-6.97-22.14-20.67-22.4-36.57-.03-1.72.06-3.42.24-5.1l-2.64-.28Z"/>
    <polygon class="st6" points="88.15 115.47 95.07 93.5 102 115.47 110.72 115.47 123.24 80.07 113.74 80.07 106.5 103.46 99.13 80.07 91.23 80.07 83.89 103.47 76.55 80.07 66.9 80.07 79.37 115.47 88.15 115.47"/>
  </g>
  <path class="st2" d="M102.67,114.56h7.4l11.87-33.57h-7.52l-7.91,25.54-8.05-25.54h-6.56l-8.02,25.55-8-25.55h-7.68l11.82,33.57h7.45l7.59-24.11,7.6,24.11Z"/>
</svg>